<svg aria-hidden="true" style="position: absolute; width: 0; height: 0; overflow: hidden;" version="1.1" xmlns="http://www.w3.org/2000/svg" xmlns:xlink="http://www.w3.org/1999/xlink">
<defs>
<symbol id="icon-antenna" viewBox="0 0 32 32">
<path fill="#2e2f42" style="fill: var(--color1, #2e2f42)" d="M30.775 22.1l-8.445-8.505 0.935-4.62c0.245 0.1 0.5 0.15 0.76 0.15h0.005c0.009 0 0.020 0 0.032 0 1.193 0 2.16-0.967 2.16-2.16s-0.967-2.16-2.16-2.16c-1.193 0-2.16 0.967-2.16 2.16 0 0.258 0.045 0.505 0.128 0.735l-0.005-0.015-4.96 0.61-8.090-8.135c-0.097-0.096-0.23-0.156-0.378-0.156-0.145 0-0.276 0.058-0.373 0.151l0-0-1.515 1.5c-0.21 0.21-0.21 0.55 0 0.76l0.815 0.825c-1.142 2.062-1.815 4.521-1.815 7.137 0 4.105 1.656 7.824 4.336 10.524l-0.001-0.001c0.040 0.045 0.090 0.075 0.145 0.1-0.035 0.18-0.050 0.365-0.050 0.55v6.185h-6.405c0 0 0 0 0 0-1.473 0-2.667 1.193-2.67 2.665v1.065c0 0.3 0.24 0.535 0.535 0.535h24.53c0.3 0 0.535-0.24 0.535-0.535v-1.065c-0.003-1.471-1.194-2.662-2.665-2.665h-6.4v-2.745c0.914 0.2 1.964 0.315 3.041 0.315 2.582 0 5.011-0.659 7.126-1.818l-0.077 0.039 0.815 0.825c0.1 0.1 0.235 0.16 0.375 0.16s0.275-0.055 0.375-0.15l1.515-1.51c0.205-0.205 0.205-0.545 0-0.75zM23.28 6.235c0.193-0.192 0.458-0.31 0.751-0.31 0.588 0 1.065 0.477 1.065 1.065s-0.477 1.065-1.065 1.065c-0 0-0.001 0-0.001 0h0c-0.588-0.001-1.064-0.477-1.064-1.065 0-0.295 0.12-0.562 0.314-0.755l0-0zM22.025 9.735l-0.6 2.95-1.175-1.185 1.775-1.76zM21.42 8.835l-1.92 1.915-1.485-1.495 3.4-0.415zM24 28.8c0.884 0 1.6 0.716 1.6 1.6v0 0.535h-23.465v-0.535c0-0.884 0.716-1.6 1.6-1.6h20.27zM16.53 26.665v1.070h-5.325v-1.070h5.33zM11.205 25.6v-4.050c0-1.3 1.2-2.35 2.665-2.35 1.47 0 2.665 1.050 2.665 2.35v4.050h-5.33zM17.605 23.9v-2.35c0-1.885-1.675-3.415-3.735-3.415-0.017-0-0.038-0-0.058-0-1.352 0-2.539 0.706-3.213 1.77l-0.009 0.016c-2.361-2.482-3.813-5.847-3.813-9.552 0-2.314 0.567-4.497 1.569-6.415l-0.036 0.077 18.6 18.71c-1.823 0.947-3.98 1.503-6.268 1.503-1.077 0-2.125-0.123-3.131-0.356l0.093 0.018zM28.895 23.22l-21.060-21.18 0.755-0.75 21.060 21.18-0.755 0.75z"></path>
<path fill="#4d5ae5" style="fill: var(--color2, #4d5ae5)" d="M13.875 20.265c-0.002 0-0.003 0-0.005 0-0.884 0-1.6 0.716-1.6 1.6 0 0.882 0.713 1.597 1.595 1.6h0.005c0.001 0 0.002 0 0.002 0 0.884 0 1.6-0.716 1.6-1.6s-0.715-1.599-1.597-1.6h-0zM14.25 22.245c-0.097 0.099-0.232 0.16-0.382 0.16-0.295 0-0.535-0.24-0.535-0.535s0.24-0.535 0.535-0.535c0.001 0 0.001 0 0.002 0h-0c0.293 0.004 0.528 0.242 0.528 0.535 0 0.146-0.059 0.279-0.154 0.375l0-0z"></path>
</symbol>
<symbol id="icon-clock" viewBox="0 0 32 32">
<path fill="#2e2f42" style="fill: var(--color1, #2e2f42)" d="M31.297 15.301c-0.002-8.452-6.855-15.303-15.308-15.301s-15.303 6.855-15.301 15.308c0.001 6.658 4.307 12.551 10.649 14.576 0.061 0.019 0.124 0.029 0.187 0.029 0.121-0 0.239-0.032 0.342-0.094 0.135-0.080 0.236-0.207 0.283-0.356l3.865-12.25c1.057-0.005 1.909-0.866 1.903-1.923s-0.866-1.909-1.923-1.903c-0.284 0.001-0.565 0.067-0.82 0.191l-5.106-5.107c-0.253-0.245-0.657-0.238-0.902 0.016-0.239 0.247-0.239 0.639 0 0.886l5.103 5.109c-0.392 0.799-0.168 1.764 0.536 2.309l-3.683 11.673c-7.278-2.681-11.004-10.754-8.323-18.032s10.754-11.004 18.032-8.323c7.278 2.681 11.004 10.754 8.323 18.032-1.31 3.556-4.001 6.431-7.462 7.973l-0.398-1.874c-0.073-0.345-0.411-0.565-0.756-0.492-0.109 0.023-0.209 0.074-0.293 0.148l-3.837 3.426c-0.263 0.234-0.287 0.637-0.052 0.9 0.076 0.085 0.174 0.149 0.283 0.184l4.899 1.564c0.335 0.108 0.694-0.077 0.802-0.412 0.034-0.106 0.040-0.219 0.017-0.328l-0.391-1.839c5.664-2.388 9.342-7.942 9.329-14.089zM15.992 14.664c0.352 0 0.638 0.286 0.638 0.638s-0.286 0.638-0.638 0.638c-0.352 0-0.638-0.285-0.638-0.638s0.285-0.638 0.638-0.638zM18.093 29.528l2.184-1.948 0.603 2.84-2.787-0.892z"></path>
<path fill="#4d5ae5" style="fill: var(--color2, #4d5ae5)" d="M15.354 3.185v1.275c0 0.352 0.285 0.638 0.638 0.638s0.638-0.285 0.638-0.638v-1.275c0-0.352-0.286-0.638-0.638-0.638s-0.638 0.286-0.638 0.638z"></path>
<path fill="#4d5ae5" style="fill: var(--color2, #4d5ae5)" d="M3.876 14.664c-0.352 0-0.638 0.286-0.638 0.638s0.285 0.638 0.638 0.638h1.275c0.352 0 0.638-0.285 0.638-0.638s-0.285-0.638-0.638-0.638h-1.275z"></path>
<path fill="#4d5ae5" style="fill: var(--color2, #4d5ae5)" d="M28.108 15.939c0.352 0 0.638-0.285 0.638-0.638s-0.285-0.638-0.638-0.638h-1.275c-0.352 0-0.638 0.286-0.638 0.638s0.286 0.638 0.638 0.638h1.275z"></path>
</symbol>
<symbol id="icon-diagram" viewBox="0 0 32 32">
<path fill="#4d5ae5" style="fill: var(--color2, #4d5ae5)" d="M14.925 14.965h1.065v4.8h-1.065v-4.8zM19.19 17.1h1.065v2.66h-1.065v-2.66zM10.66 18.7h1.065v1.060h-1.065v-1.060zM7.465 18.165h1.065v1.6h-1.065v-1.6z"></path>
<path fill="#2e2f42" style="fill: var(--color1, #2e2f42)" d="M1.6 28.29h25.585c0.884 0 1.6-0.716 1.6-1.6v0-2.13c0-0.884-0.716-1.6-1.6-1.6v0h-0.53v-13.295l3.025-2.865c0.207 0.104 0.451 0.165 0.709 0.165 0.889 0 1.61-0.721 1.61-1.61s-0.721-1.61-1.61-1.61c-0.889 0-1.61 0.721-1.61 1.61 0 0.247 0.056 0.481 0.155 0.69l-0.004-0.010-2.275 2.165v-1.23c0-0.884-0.716-1.6-1.6-1.6v0h-21.325c-0.884 0-1.6 0.716-1.6 1.6v0 15.99h-0.53c-0.884 0-1.6 0.716-1.6 1.6v0 2.13c0 0.884 0.716 1.6 1.6 1.6v0zM30.385 4.84c0.015-0.002 0.033-0.003 0.052-0.003 0.295 0 0.535 0.24 0.535 0.535s-0.24 0.535-0.535 0.535c-0.018 0-0.036-0.001-0.054-0.003l0.002 0c-0.295 0-0.535-0.24-0.535-0.535s0.24-0.535 0.535-0.535v0zM3.2 6.965c0-0.3 0.235-0.535 0.53-0.535h21.325c0.295 0 0.53 0.24 0.53 0.535v2.235l-1.065 1.015v-2.185c0-0.295-0.24-0.535-0.535-0.535h-19.185c-0.29 0-0.53 0.24-0.53 0.535v13.325c0 0.3 0.24 0.535 0.53 0.535h19.19c0.3 0 0.535-0.24 0.535-0.535v-9.67l1.065-1.010v12.285h-22.39v-15.99zM8 13.9c-0.004-0-0.008-0-0.012-0-0.884 0-1.6 0.716-1.6 1.6s0.716 1.6 1.6 1.6c0.432 0 0.825-0.172 1.113-0.45l-0 0 1.855 0.925c0.215 0.11 0.475 0.060 0.635-0.12l3.94-4.43 3.875 2.9c0.205 0.15 0.5 0.14 0.685-0.040l3.365-3.19v8.135h-18.125v-12.26h18.125v2.66l-3.77 3.57-3.905-2.925c-0.088-0.067-0.2-0.108-0.322-0.108-0.158 0-0.3 0.068-0.398 0.177l-0 0-3.995 4.495-1.49-0.75 0.020-0.19c0-0.884-0.716-1.6-1.6-1.6v0zM8.53 15.5c0.002 0.015 0.002 0.033 0.002 0.052 0 0.295-0.24 0.535-0.535 0.535s-0.535-0.24-0.535-0.535c0-0.018 0.001-0.036 0.003-0.054l-0 0.002c0.027-0.272 0.255-0.483 0.532-0.483s0.505 0.211 0.532 0.481l0 0.002zM11.73 24.025h5.33v0.535c0 0.295-0.24 0.535-0.535 0.535h-4.265c-0.295 0-0.535-0.24-0.535-0.535v-0.535zM1.060 24.56c0-0.295 0.24-0.535 0.535-0.535h9.060v0.535c0 0.884 0.716 1.6 1.6 1.6h4.265c0.884 0 1.6-0.716 1.6-1.6v0-0.535h9.060c0.295 0 0.535 0.24 0.535 0.535v2.13c0 0.3-0.24 0.535-0.535 0.535h-25.58c-0.295 0-0.535-0.24-0.535-0.535v-2.13z"></path>
</symbol>
<symbol id="icon-astronaut" viewBox="0 0 32 32">
<path fill="#4d5ae5" style="fill: var(--color2, #4d5ae5)" d="M31.975 4.525c-0.063-0.192-0.227-0.334-0.427-0.365l-0.003-0-1.91-0.275-0.855-1.735c-0.18-0.365-0.78-0.365-0.96 0l-0.85 1.735-1.915 0.275c-0.259 0.040-0.454 0.262-0.454 0.529 0 0.149 0.061 0.284 0.159 0.381l0 0 1.385 1.35-0.33 1.9c-0.005 0.027-0.008 0.059-0.008 0.091 0 0.295 0.24 0.535 0.535 0.535 0.091 0 0.176-0.023 0.251-0.062l-0.003 0.001 1.71-0.9 1.71 0.9c0.072 0.038 0.157 0.061 0.248 0.061 0.295 0 0.535-0.24 0.535-0.535 0-0.032-0.003-0.064-0.008-0.094l0 0.003-0.33-1.9 1.385-1.35c0.145-0.14 0.2-0.35 0.135-0.55zM29.51 5.85c-0.125 0.125-0.18 0.3-0.15 0.475l0.19 1.11-1-0.525c-0.072-0.039-0.158-0.063-0.25-0.063s-0.178 0.023-0.253 0.064l0.003-0.001-1 0.525 0.19-1.11c0.030-0.175-0.025-0.35-0.15-0.475l-0.81-0.79 1.115-0.16c0.175-0.025 0.325-0.135 0.4-0.295l0.5-1.010 0.5 1.010c0.080 0.16 0.23 0.27 0.405 0.295l1.12 0.16-0.81 0.79zM26.135 20.52h-1.070v1.070h1.070v-1.070zM26.135 22.655h-1.070v1.065h1.070v-1.065zM27.2 21.59h-1.065v1.065h1.065v-1.065zM25.065 21.59h-1.065v1.065h1.065v-1.065zM22.4 26.39h-1.065v1.065h1.065v-1.065zM22.4 28.52h-1.065v1.070h1.065v-1.070zM23.465 27.455h-1.065v1.065h1.065v-1.065z"></path>
<path fill="#4d5ae5" style="fill: var(--color2, #4d5ae5)" d="M21.335 27.455h-1.070v1.065h1.070v-1.065zM16 24.255h-1.065v1.065h1.065v-1.065zM16 26.39h-1.065v1.065h1.065v-1.065zM17.065 25.32h-1.065v1.070h1.065v-1.070zM14.935 25.32h-1.070v1.070h1.070v-1.070zM5.865 6.12h-1.065v1.070h1.065v-1.070zM5.865 8.255h-1.065v1.065h1.065v-1.065zM6.935 7.19h-1.070v1.065h1.070v-1.065zM4.8 7.19h-1.065v1.065h1.065v-1.065z"></path>
<path fill="#2e2f42" style="fill: var(--color1, #2e2f42)" d="M24.715 14.16c-0.28-0.377-0.7-0.637-1.181-0.704l-0.009-0.001c-0.077-0.012-0.166-0.019-0.257-0.019-0.41 0-0.787 0.139-1.087 0.372l0.004-0.003-1.25 0.96-1.9 1.42-1.355-0.54c2.44-1.106 4.108-3.517 4.115-6.319v-0.001c0-3.825-3.125-6.935-6.965-6.935-0.002 0-0.003 0-0.005 0-3.834 0-6.944 3.102-6.955 6.934v0.001c0 1.385 0.415 2.67 1.12 3.755l-2.765-0.025-0.025 0.005c-0.050 0-0.105 0.015-0.155 0.035l-0.040 0.010c-0.005 0-0.015 0-0.020 0.010l-3.235 1.595-1.89 0.91c-0.538 0.313-0.894 0.888-0.894 1.545 0 0.984 0.798 1.782 1.782 1.782 0.327 0 0.633-0.088 0.896-0.241l-0.008 0.005 1.385-0.735 2.265-1.17 1.355-0.010-6.785 6.755c-0.307 0.3-0.497 0.718-0.497 1.18s0.19 0.88 0.496 1.18l0 0c0.301 0.301 0.718 0.488 1.177 0.488s0.876-0.186 1.177-0.488v0l1.315-1.31 1.74-1.3 0.9 0.9-3.1 3.085c-0.305 0.3-0.494 0.716-0.494 1.177s0.189 0.878 0.494 1.177l0 0c0.302 0.302 0.719 0.488 1.18 0.488s0.878-0.187 1.18-0.488l-0 0 1.34-1.33 2.145-2.135 1.010-1-0.005-0.005 0.020-0.015 5.17-5.66 3.47 0.495c0.020 0.003 0.042 0.004 0.065 0.004 0.070 0 0.137-0.014 0.198-0.040l-0.003 0.001 0.050-0.020 0.060-0.030 3.21-2.135c0.015-0.005 0.020-0.020 0.030-0.025 0.015-0.010 0.030-0.015 0.040-0.030l1.275-1.19c0.346-0.326 0.562-0.786 0.562-1.298 0-0.4-0.132-0.77-0.355-1.067l0.003 0.005zM2.13 17.77c-0.175 0.095-0.37 0.11-0.56 0.050-0.294-0.093-0.503-0.364-0.503-0.683 0-0.236 0.115-0.446 0.291-0.576l0.002-0.001 1.315-0.63 0.315 0.925 0.13 0.39-0.99 0.525zM5.63 15.94l-1.55 0.8-0.255-0.74-0.185-0.535 2.025-1-0.035 1.48zM20.73 9.32c0 0.92-0.22 1.785-0.6 2.56l-4.185-1.9c-0.043-0.574-0.341-1.070-0.779-1.381l-0.006-0.004 1.46-4.86c2.393 0.775 4.096 2.98 4.105 5.584v0.001zM8.94 9.32c0.015-3.241 2.646-5.863 5.89-5.863 0.264 0 0.525 0.017 0.78 0.051l-0.030-0.003-1.435 4.755h-0.055c-0.002 0-0.003 0-0.005 0-1.029 0-1.864 0.832-1.87 1.859v0.001c0.005 1.029 0.84 1.861 1.87 1.861 0.689 0 1.291-0.373 1.615-0.927l0.005-0.009 3.865 1.75c-1.085 1.459-2.803 2.394-4.74 2.394-3.245 0-5.878-2.625-5.89-5.868v-0.001zM14.89 10.12c0 0.445-0.36 0.805-0.805 0.805s-0.805-0.36-0.805-0.805v0c0-0.44 0.365-0.8 0.81-0.8s0.8 0.36 0.8 0.8zM2.47 25.15c-0.235 0.235-0.62 0.235-0.85 0-0.107-0.108-0.174-0.256-0.174-0.42s0.066-0.312 0.174-0.42l0.96-0.96 0.85 0.85-0.96 0.95zM5.685 28.885c-0.24 0.235-0.62 0.235-0.855 0-0.109-0.108-0.176-0.257-0.176-0.422s0.067-0.315 0.176-0.422l0.96-0.96 0.85 0.85-0.955 0.95zM9.165 25.415l-1.765 1.76-0.85-0.85 1.76-1.75c0.040-0.040 0.065-0.090 0.090-0.14l0.030-0.040c0.015-0.040 0.015-0.085 0.025-0.125l0.010-0.075c0-0.035-0.010-0.070-0.020-0.1 0-0.035 0-0.070-0.015-0.1-0.020-0.050-0.055-0.095-0.095-0.14-0.010-0.010-0.010-0.025-0.025-0.035l-1.605-1.6c-0.020-0.020-0.040-0.025-0.060-0.040-0.025-0.022-0.053-0.042-0.082-0.059l-0.003-0.001c-0.027-0.012-0.059-0.022-0.092-0.029l-0.003-0.001c-0.029-0.009-0.063-0.016-0.098-0.020l-0.002-0h-0.1l-0.1 0.025c-0.038 0.012-0.071 0.028-0.102 0.046l0.002-0.001c-0.015 0.010-0.040 0.015-0.055 0.030l-1.775 1.32-0.9-0.9 2.4-2.38 4.36 4.285-0.93 0.92zM15.98 18.4h-0.050c-0.009-0.001-0.019-0.001-0.030-0.001-0.1 0-0.193 0.028-0.273 0.077l0.002-0.001-0.080 0.065-0.040 0.030-4.7 5.145-4.325-4.26 2.835-2.815c0.095-0.096 0.153-0.229 0.153-0.375 0-0.295-0.239-0.534-0.533-0.535h-0l-2.22 0.010 0.025-1.605 3.105 0.025c1.264 1.296 3.027 2.099 4.977 2.099 0.454 0 0.897-0.043 1.326-0.126l-0.044 0.007c0.040 0.030 0.080 0.060 0.13 0.085l2.41 0.96 0.15 0.755 0.18 0.885-3-0.425zM20.020 18.575l-0.315-1.555 1.45-1.080 0.375 0.5 0.57 0.755-2.080 1.38zM23.77 15.745l-0.835 0.785-0.93-1.235 0.83-0.635c0.123-0.1 0.281-0.161 0.454-0.161 0.398 0 0.72 0.322 0.72 0.72 0 0.21-0.090 0.399-0.233 0.53l-0.001 0z"></path>
<path fill="#2e2f42" style="fill: var(--color1, #2e2f42)" d="M13.6 18.545l-2.14-2.135c-0.096-0.095-0.229-0.153-0.375-0.153s-0.279 0.059-0.375 0.154l0-0-2.15 2.135c-0.096 0.097-0.156 0.23-0.156 0.378s0.060 0.281 0.156 0.378l-0-0 2.15 2.135c0.096 0.095 0.229 0.153 0.375 0.153s0.279-0.059 0.375-0.154l-0 0 2.14-2.135c0.096-0.097 0.156-0.23 0.156-0.378s-0.060-0.281-0.156-0.378l0 0zM11.085 20.305l-1.39-1.385 1.39-1.38 1.385 1.38-1.385 1.385zM17.165 5.070l-0.26 1.035c0.075 0.020 1.74 0.45 1.74 2.15h1.065c0-2.015-1.665-2.965-2.55-3.185zM19.71 9.32h-1.060v1.070h1.065v-1.070z"></path>
</symbol>
<symbol id="icon-instagram" viewBox="0 0 32 32">
<path fill="#f4f4fd" style="fill: var(--color3, #f4f4fd)" d="M31.96 9.4c-0.027-1.401-0.296-2.73-0.767-3.96l0.027 0.080c-0.421-1.112-1.047-2.059-1.839-2.839l-0.001-0.001c-0.8-0.8-1.78-1.44-2.84-1.84-1-0.4-2.18-0.66-3.88-0.74-1.479-0.072-3.211-0.112-4.954-0.112-0.579 0-1.157 0.005-1.734 0.013l0.087-0.001c-4.34 0-4.88 0-6.6 0.1-1.7 0.060-2.86 0.34-3.86 0.74-1.112 0.421-2.059 1.047-2.839 1.839l-0.001 0.001c-0.8 0.8-1.44 1.78-1.84 2.84-0.4 1-0.66 2.2-0.74 3.88-0.082 1.578-0.128 3.426-0.128 5.284 0 0.463 0.003 0.925 0.009 1.386l-0.001-0.070c0 4.34 0 4.9 0.080 6.6s0.36 2.86 0.76 3.88c0.4 1.080 1.040 2.040 1.84 2.84s1.78 1.44 2.84 1.84c1 0.4 2.18 0.68 3.88 0.74 1.7 0.080 2.24 0.1 6.6 0.1 4.34 0 4.88 0 6.6-0.1 1.401-0.027 2.73-0.296 3.96-0.767l-0.080 0.027c2.155-0.852 3.828-2.525 4.661-4.625l0.019-0.055c0.4-1.020 0.66-2.2 0.74-3.88 0.080-1.7 0.080-2.26 0.080-6.6s0-4.88-0.080-6.6zM29.080 22.48c-0.060 1.56-0.32 2.4-0.54 2.96-0.54 1.4-1.64 2.5-3.040 3.040-0.56 0.22-1.4 0.48-2.98 0.56-1.68 0.060-2.2 0.080-6.46 0.080s-4.78 0-6.46-0.080c-1.067-0.016-2.082-0.22-3.020-0.58l0.060 0.020c-0.722-0.27-1.337-0.679-1.839-1.199l-0.001-0.001c-0.519-0.504-0.928-1.119-1.189-1.806l-0.011-0.034c-0.333-0.879-0.53-1.895-0.54-2.956l-0-0.004c-0.070-1.484-0.11-3.223-0.11-4.972 0-0.523 0.004-1.046 0.011-1.567l-0.001 0.079c0-4.28 0-4.8 0.1-6.46 0.060-1.58 0.32-2.4 0.54-2.98 0.26-0.7 0.66-1.32 1.2-1.84 0.52-0.52 1.14-0.94 1.84-1.2 0.56-0.2 1.4-0.48 2.96-0.54 1.7-0.080 2.2-0.1 6.48-0.1 4.26 0 4.78 0.020 6.46 0.1 1.56 0.060 2.4 0.34 2.96 0.56 0.7 0.24 1.34 0.66 1.84 1.2 0.54 0.5 0.94 1.12 1.2 1.82 0.2 0.56 0.48 1.4 0.54 2.98 0.080 1.68 0.1 2.2 0.1 6.46s0 4.76-0.1 6.46z"></path>
<path fill="#f4f4fd" style="fill: var(--color3, #f4f4fd)" d="M16.060 7.8c-0.121-0.006-0.263-0.010-0.405-0.010-4.54 0-8.22 3.68-8.22 8.22s3.68 8.22 8.22 8.22c0.143 0 0.284-0.004 0.425-0.011l-0.020 0.001c4.54 0 8.22-3.68 8.22-8.22s-3.68-8.22-8.22-8.22v0zM16.060 21.34c-2.949 0-5.34-2.391-5.34-5.34s2.391-5.34 5.34-5.34v0c2.949 0 5.34 2.391 5.34 5.34s-2.391 5.34-5.34 5.34v0zM26.52 7.46c0 1.060-0.86 1.92-1.92 1.92s-1.92-0.86-1.92-1.92v0c0-1.060 0.86-1.92 1.92-1.92s1.92 0.86 1.92 1.92v0z"></path>
</symbol>
<symbol id="icon-twitter" viewBox="0 0 32 32">
<path fill="#f4f4fd" style="fill: var(--color3, #f4f4fd)" d="M32 6.080c-1.2 0.52-2.46 0.86-3.78 1.040 1.36-0.8 2.4-2.1 2.88-3.64-1.26 0.76-2.66 1.3-4.16 1.6-1.202-1.272-2.901-2.063-4.785-2.063-3.634 0-6.58 2.946-6.58 6.58 0 0.519 0.060 1.023 0.174 1.508l-0.009-0.045c-5.46-0.281-10.261-2.881-13.473-6.826l-0.027-0.034c-0.554 0.945-0.881 2.081-0.881 3.294 0 2.264 1.14 4.263 2.878 5.451l0.023 0.015c-1.090-0.028-2.106-0.321-2.993-0.817l0.033 0.017v0.060c0.001 3.17 2.237 5.817 5.217 6.452l0.043 0.008c-0.508 0.142-1.092 0.224-1.695 0.224-0.448 0-0.885-0.045-1.307-0.131l0.042 0.007c0.875 2.617 3.27 4.484 6.111 4.56l0.009 0c-2.22 1.754-5.060 2.814-8.147 2.814-0.554 0-1.101-0.034-1.637-0.101l0.064 0.006c2.824 1.844 6.282 2.94 9.995 2.94 0.023 0 0.046-0 0.068-0h-0.004c12.080 0 18.68-10 18.68-18.66l-0.020-0.86c1.296-0.936 2.385-2.063 3.25-3.353l0.030-0.047z"></path>
</symbol>
<symbol id="icon-facebook" viewBox="0 0 32 32">
<path fill="#f4f4fd" style="fill: var(--color3, #f4f4fd)" d="M21.32 5.32h2.94v-5.12c-0.52-0.040-2.26-0.2-4.26-0.2-4.2 0-7.1 2.64-7.1 7.52v4.48h-4.66v5.68h4.66v14.32h5.7v-14.32h4.46l0.7-5.68h-5.16v-3.92c0-1.64 0.44-2.76 2.72-2.76z"></path>
</symbol>
<symbol id="icon-linkedin" viewBox="0 0 32 32">
<path fill="#f4f4fd" style="fill: var(--color3, #f4f4fd)" d="M32 32v-11.74c0-5.74-1.24-10.16-7.94-10.16-3.24 0-5.4 1.76-6.28 3.44h-0.1v-2.9h-6.36v21.36h6.62v-10.6c0-2.8 0.54-5.48 4-5.48 3.4 0 3.44 3.18 3.44 5.66v10.42h6.6zM0.52 10.64h6.64v21.36h-6.64v-21.36zM3.84 0c-2.12 0-3.84 1.72-3.84 3.84s1.72 3.88 3.84 3.88 3.84-1.76 3.84-3.88-1.72-3.84-3.84-3.84z"></path>
</symbol>
<symbol id="icon-client-one" viewBox="0 0 59 32">
<path  d="M21.714 4l4 3.817-7.429-0.006v18.514h19.429v-7.086l4 3.811v-19.051h-20zM37.543 18.8l-11.366-10.829h11.366v10.829zM34.011 23.611h-12.651v-12.446h0.897v11.6h11.754v0.846zM23.886 29.749l-0.474-0.971h-0.389l0.686 1.286v0.743h0.349v-0.743l0.686-1.286h-0.389l-0.469 0.971zM25.623 28.777h0.080l0.771 2.034h-0.371l-0.16-0.474h-0.789l-0.166 0.474h-0.366l0.766-2.034h0.234zM25.251 30.057h0.594l-0.297-0.857-0.297 0.857zM27.709 29.72c-0.065-0.074-0.121-0.159-0.163-0.251l-0.003-0.006c-0.028-0.063-0.044-0.136-0.044-0.214 0-0.096 0.025-0.185 0.068-0.263l-0.001 0.003c0.044-0.074 0.106-0.132 0.18-0.17l0.003-0.001c0.080-0.046 0.171-0.063 0.28-0.063 0.103 0 0.189 0.017 0.263 0.057 0.142 0.075 0.237 0.221 0.237 0.39 0 0.064-0.013 0.124-0.038 0.178l0.001-0.003c-0.026 0.055-0.058 0.102-0.097 0.143l0-0c-0.040 0.046-0.086 0.086-0.143 0.126l-0.137 0.103 0.4 0.474c0.058-0.108 0.091-0.236 0.091-0.371 0-0.002 0-0.004-0-0.006v0h0.286c0 0.097-0.006 0.189-0.029 0.28-0.028 0.126-0.079 0.238-0.15 0.334l0.002-0.002 0.297 0.354h-0.389l-0.114-0.137c-0.069 0.046-0.137 0.086-0.211 0.114-0.090 0.032-0.194 0.051-0.302 0.051-0.13 0-0.255-0.027-0.367-0.076l0.006 0.002c-0.095-0.047-0.173-0.117-0.227-0.203l-0.001-0.002c-0.049-0.081-0.078-0.179-0.078-0.284 0-0.083 0.018-0.162 0.051-0.233l-0.001 0.003c0.034-0.057 0.080-0.12 0.137-0.171 0.057-0.057 0.114-0.103 0.189-0.154zM27.869 29.926l-0.040 0.029c-0.044 0.032-0.082 0.070-0.113 0.113l-0.001 0.001c-0.034 0.053-0.055 0.117-0.055 0.186 0 0.057 0.014 0.111 0.039 0.159l-0.001-0.002c0.029 0.051 0.063 0.091 0.114 0.114 0.051 0.034 0.114 0.046 0.183 0.046 0.001 0 0.002 0 0.002 0 0.123 0 0.236-0.043 0.324-0.115l-0.001 0.001-0.451-0.531zM27.949 29.554l0.126-0.086c0.049-0.031 0.091-0.069 0.125-0.113l0.001-0.001c0.025-0.038 0.040-0.086 0.040-0.136 0-0.002-0-0.005-0-0.007v0c-0.003-0.108-0.091-0.195-0.2-0.195-0.004 0-0.008 0-0.012 0l0.001-0c-0.002-0-0.005-0-0.007-0-0.083 0-0.154 0.049-0.187 0.119l-0.001 0.001c-0.017 0.035-0.026 0.076-0.026 0.12 0 0.048 0.012 0.093 0.033 0.133l-0.001-0.002 0.086 0.137 0.023 0.029zM31.503 30.149h-0.343c-0.009 0.085-0.033 0.162-0.070 0.232l0.002-0.003c-0.032 0.060-0.081 0.107-0.141 0.136l-0.002 0.001c-0.063 0.029-0.138 0.046-0.216 0.046-0.009 0-0.017-0-0.026-0.001l0.001 0c-0.002 0-0.005 0-0.008 0-0.075 0-0.145-0.019-0.206-0.053l0.002 0.001c-0.059-0.034-0.107-0.080-0.142-0.135l-0.001-0.002c-0.038-0.061-0.068-0.131-0.085-0.207l-0.001-0.005c-0.017-0.086-0.023-0.177-0.023-0.28v-0.166c0-0.109 0.006-0.206 0.029-0.286 0.017-0.086 0.051-0.16 0.091-0.217s0.086-0.097 0.149-0.131c0.055-0.026 0.12-0.040 0.188-0.040 0.006 0 0.013 0 0.019 0l-0.001-0c0.097 0 0.177 0.017 0.24 0.046 0.057 0.034 0.103 0.080 0.137 0.143 0.029 0.063 0.051 0.137 0.057 0.229h0.354c-0.017-0.137-0.057-0.257-0.114-0.366-0.063-0.103-0.149-0.183-0.263-0.246-0.11-0.055-0.239-0.086-0.375-0.086-0.013 0-0.025 0-0.038 0.001l0.002-0c-0.126 0-0.24 0.017-0.343 0.063s-0.189 0.114-0.263 0.194c-0.069 0.086-0.126 0.189-0.166 0.303s-0.057 0.251-0.057 0.4v0.171c0 0.143 0.017 0.274 0.057 0.389 0.040 0.12 0.091 0.223 0.166 0.303 0.137 0.162 0.34 0.263 0.567 0.263 0.009 0 0.019-0 0.028-0.001l-0.001 0c0.166 0 0.303-0.029 0.417-0.091 0.114-0.057 0.206-0.143 0.269-0.246 0.057-0.103 0.097-0.223 0.114-0.354zM33.446 29.851v-0.114c0-0.149-0.023-0.286-0.063-0.411-0.040-0.114-0.097-0.229-0.171-0.309-0.072-0.083-0.162-0.149-0.264-0.192l-0.005-0.002c-0.098-0.043-0.212-0.069-0.333-0.069-0.004 0-0.007 0-0.011 0h0.001c-0.126 0-0.24 0.023-0.343 0.069-0.103 0.040-0.189 0.109-0.263 0.194s-0.137 0.189-0.171 0.309c-0.046 0.126-0.063 0.263-0.063 0.411v0.114c0 0.154 0.017 0.286 0.057 0.411 0.046 0.126 0.103 0.229 0.177 0.314 0.141 0.162 0.348 0.263 0.578 0.263 0.010 0 0.020-0 0.029-0.001l-0.001 0c0.126 0 0.24-0.023 0.343-0.069 0.109-0.046 0.194-0.114 0.269-0.194 0.074-0.086 0.131-0.189 0.171-0.314 0.040-0.12 0.057-0.257 0.057-0.411zM33.091 29.737v0.114c0 0.114-0.011 0.211-0.034 0.303-0.017 0.086-0.051 0.16-0.091 0.217s-0.091 0.104-0.152 0.136l-0.002 0.001c-0.059 0.029-0.128 0.046-0.201 0.046-0.004 0-0.007-0-0.011-0h0.001c-0.002 0-0.004 0-0.006 0-0.073 0-0.141-0.017-0.202-0.047l0.003 0.001c-0.063-0.034-0.114-0.080-0.153-0.136l-0.001-0.001c-0.040-0.057-0.074-0.131-0.097-0.217-0.022-0.086-0.034-0.186-0.034-0.288 0-0.005 0-0.011 0-0.016v0.001-0.114c0-0.114 0.011-0.211 0.034-0.303 0.023-0.086 0.057-0.16 0.097-0.217s0.091-0.103 0.154-0.131c0.057-0.034 0.126-0.046 0.206-0.046 0.002-0 0.004-0 0.006-0 0.073 0 0.141 0.017 0.202 0.047l-0.003-0.001c0.063 0.029 0.114 0.074 0.154 0.131 0.046 0.057 0.080 0.131 0.097 0.217 0.023 0.091 0.034 0.189 0.034 0.303z"></path>
</symbol>
<symbol id="icon-client-two" viewBox="0 0 59 32">
<path d="M28.634 3.389h-0.074l-0.36-0.011h-0.263c-0.017-0-0.036-0-0.056-0-0.242 0-0.482 0.006-0.72 0.019l0.033-0.001c-2.080 0.114-4.114 0.64-6.006 1.531l-0.246 0.12v12.651l0.577-0.194c1.852-0.667 3.99-1.065 6.216-1.091l0.012-0v1.663l-0.606 0.017h-0.046c-2.881 0.16-5.544 0.956-7.896 2.248l0.096-0.048v-16.234c1.282-0.76 2.764-1.38 4.334-1.78l0.118-0.025c1.256-0.337 2.698-0.532 4.186-0.537h0.249c1.043 0.003 2.052 0.139 3.015 0.39l-0.084-0.019v1.64c-0.582-0.144-1.273-0.253-1.98-0.306l-0.043-0.003h-0.040c-0.143-0.011-0.286-0.029-0.417-0.029zM31.514 5.063c0.323 0.021 0.7 0.032 1.080 0.032 1.579 0 3.111-0.204 4.571-0.586l-0.125 0.028c1.611-0.41 3.022-0.976 4.334-1.699l-0.094 0.047v15.937c-1.281 0.762-2.764 1.383-4.333 1.786l-0.118 0.026c-1.371 0.349-2.777 0.531-4.189 0.537-0.029 0-0.063 0-0.097 0-1.096 0-2.159-0.138-3.174-0.397l0.089 0.019v-16.040c0.593 0.145 1.296 0.254 2.015 0.306l0.042 0.002zM39.629 5.189l-0.577 0.194c-1.919 0.691-4.133 1.090-6.441 1.090-0.361 0-0.721-0.010-1.077-0.029l0.050 0.002-0.469-0.029v13.011l0.4 0.034c0.331 0.025 0.716 0.040 1.105 0.040 1.353 0 2.666-0.175 3.916-0.504l-0.107 0.024c1.131-0.291 2.112-0.656 3.042-1.11l-0.094 0.041 0.251-0.114v-12.651z"></path>
<path fill="#8e8f99" style="fill: var(--color4, #8e8f99)" d="M20.423 25.834c-0.156-0.159-0.373-0.258-0.613-0.258-0.012 0-0.023 0-0.035 0.001l0.002-0c-0.126 0-0.251 0.023-0.371 0.069-0.321 0.129-0.544 0.437-0.544 0.798 0 0.015 0 0.030 0.001 0.044l-0-0.002v2.171c0 0.149 0.023 0.303 0.086 0.44 0.057 0.114 0.126 0.211 0.217 0.291 0.086 0.074 0.189 0.126 0.297 0.154s0.217 0.046 0.326 0.046c0.498-0.010 0.897-0.415 0.897-0.914 0-0 0-0 0-0v0-0.24h-0.571v0.189c0.006 0.069 0 0.137-0.029 0.194-0.018 0.049-0.045 0.091-0.080 0.126v0c-0.065 0.049-0.146 0.079-0.234 0.080h-0c-0.011 0.002-0.025 0.003-0.038 0.003-0.094 0-0.178-0.046-0.23-0.116l-0.001-0.001c-0.050-0.078-0.080-0.173-0.080-0.276 0-0.005 0-0.011 0-0.016l-0 0.001v-2.023c0-0.114 0.023-0.223 0.074-0.32 0.051-0.081 0.14-0.133 0.242-0.133 0.012 0 0.023 0.001 0.034 0.002l-0.001-0c0.003-0 0.006-0 0.010-0 0.098 0 0.186 0.047 0.241 0.119l0.001 0.001c0.061 0.077 0.097 0.175 0.097 0.282 0 0.001 0 0.003-0 0.004v-0 0.194h0.56v-0.223c0-0.002 0-0.005 0-0.008 0-0.261-0.098-0.499-0.258-0.679l0.001 0.001zM23.789 25.811c-0.174-0.146-0.4-0.234-0.647-0.234-0.12 0-0.236 0.021-0.342 0.059l0.007-0.002c-0.114 0.040-0.211 0.097-0.297 0.171-0.097 0.091-0.171 0.194-0.223 0.309-0.057 0.131-0.086 0.274-0.080 0.423v2.074c-0.006 0.149 0.023 0.291 0.080 0.429 0.051 0.114 0.126 0.211 0.223 0.286 0.086 0.086 0.183 0.149 0.297 0.189 0.1 0.037 0.216 0.059 0.337 0.059s0.237-0.022 0.344-0.061l-0.007 0.002c0.353-0.122 0.602-0.451 0.602-0.839 0-0.020-0.001-0.041-0.002-0.061l0 0.003v-2.080c0.001-0.012 0.001-0.026 0.001-0.040 0-0.27-0.114-0.514-0.297-0.685l-0.001-0zM23.526 28.611c0.001 0.009 0.001 0.020 0.001 0.031 0 0.107-0.044 0.203-0.115 0.272l-0 0c-0.072 0.059-0.164 0.096-0.266 0.096s-0.194-0.036-0.266-0.096l0.001 0.001c-0.071-0.068-0.116-0.163-0.116-0.269 0-0.012 0.001-0.023 0.002-0.035l-0 0.001v-2.074c-0.001-0.010-0.002-0.022-0.002-0.033 0-0.106 0.044-0.202 0.116-0.269l0-0c0.072-0.059 0.164-0.096 0.266-0.096s0.194 0.036 0.266 0.096l-0.001-0.001c0.071 0.068 0.116 0.163 0.116 0.269 0 0.012-0.001 0.023-0.002 0.035l0-0.001v2.074zM28.211 29.543v-3.943h-0.549l-0.714 2.086h-0.011l-0.72-2.086h-0.537v3.937h0.56v-2.4h0.011l0.549 1.697h0.286l0.554-1.691h0.006v2.394h0.566zM31.406 25.886c-0.086-0.103-0.194-0.171-0.32-0.217-0.117-0.040-0.251-0.063-0.391-0.063-0.005 0-0.010 0-0.016 0h-0.834v3.937h0.56v-1.543h0.286c0.177 0.011 0.349-0.023 0.509-0.103 0.227-0.142 0.387-0.371 0.433-0.64l0.001-0.006c0.022-0.132 0.035-0.285 0.035-0.44 0-0.2-0.021-0.395-0.061-0.584l0.003 0.018c-0.039-0.143-0.11-0.266-0.206-0.366l0 0zM31.12 27.086c-0.006 0.069-0.023 0.137-0.057 0.2-0.034 0.057-0.080 0.114-0.143 0.137-0.073 0.036-0.159 0.057-0.249 0.057-0.005 0-0.009-0-0.014-0h-0.256v-1.343h0.286c0.091 0 0.171 0.011 0.257 0.051 0.057 0.029 0.103 0.080 0.131 0.143 0.028 0.064 0.045 0.139 0.046 0.217v0.538zM34.057 25.606h-0.457l-0.857 3.937h0.56l0.166-0.846h0.76l0.171 0.846h0.554l-0.886-3.937zM33.543 28.16l0.28-1.429h0.006l0.274 1.429h-0.56zM37.686 27.977h-0.011l-0.846-2.371h-0.537v3.937h0.56v-2.366h0.011l0.851 2.366h0.526v-3.943h-0.56v2.371zM41.114 25.606l-0.457 1.566h-0.006l-0.457-1.566h-0.589l0.771 2.274v1.657h0.56v-1.657l0.771-2.274h-0.594zM18.857 30.651h0.269v0.76h0.183v-0.76h0.269v-0.154h-0.72v0.154zM21.131 30.497l-0.354 0.914h0.194l0.074-0.206h0.366l0.074 0.206h0.2l-0.36-0.914h-0.194zM21.103 31.051l0.12-0.343 0.126 0.343h-0.246zM23.371 31.074h0.217v0.114c-0.059 0.049-0.134 0.079-0.217 0.080h-0c-0.005 0-0.010 0.001-0.015 0.001-0.072 0-0.137-0.034-0.178-0.086l-0-0c-0.043-0.061-0.069-0.137-0.069-0.219 0-0.007 0-0.014 0.001-0.022l-0 0.001c0-0.2 0.086-0.303 0.263-0.303 0.005-0.001 0.012-0.001 0.018-0.001 0.089 0 0.165 0.060 0.187 0.142l0 0.001 0.183-0.034c-0.040-0.177-0.171-0.269-0.389-0.269-0.005-0-0.011-0-0.017-0-0.116 0-0.223 0.043-0.303 0.115l0-0c-0.082 0.081-0.133 0.193-0.133 0.318 0 0.013 0.001 0.026 0.002 0.038l-0-0.002c0 0.126 0.034 0.251 0.114 0.343 0.081 0.085 0.196 0.138 0.322 0.138 0.009 0 0.018-0 0.027-0.001l-0.001 0c0.143 0 0.286-0.051 0.389-0.149v-0.36h-0.4v0.154zM25.669 30.497h-0.183v0.914h0.64v-0.154h-0.457v-0.76zM27.611 30.497h-0.189v0.914h0.189v-0.914zM29.509 31.109l-0.377-0.611h-0.177v0.914h0.171v-0.594l0.366 0.594h0.183v-0.914h-0.171v0.611zM31.223 31.011h0.457v-0.154h-0.457v-0.206h0.486v-0.154h-0.674v0.914h0.697v-0.154h-0.514v-0.246zM35.377 30.857h-0.36v-0.36h-0.183v0.914h0.183v-0.4h0.36v0.4h0.183v-0.914h-0.183v0.36zM37.103 31.011h0.457v-0.154h-0.457v-0.206h0.491v-0.154h-0.674v0.914h0.691v-0.154h-0.509v-0.246zM39.44 31.011c0.16-0.029 0.24-0.114 0.24-0.257 0.001-0.008 0.002-0.017 0.002-0.026 0-0.071-0.034-0.134-0.087-0.174l-0.001-0c-0.069-0.037-0.151-0.058-0.237-0.058-0.011 0-0.022 0-0.033 0.001l0.001-0h-0.389v0.914h0.183v-0.383h0.034c0.040 0 0.080 0.006 0.114 0.023 0.029 0.017 0.057 0.040 0.069 0.069l0.2 0.286h0.217l-0.114-0.171c-0.046-0.091-0.114-0.171-0.2-0.229zM39.257 30.886h-0.137v-0.229h0.143c0.063-0.006 0.131 0 0.189 0.017 0.029 0.021 0.047 0.055 0.047 0.092 0 0.040-0.021 0.076-0.052 0.096l-0 0c-0.047 0.015-0.1 0.024-0.156 0.024-0.012 0-0.023-0-0.034-0.001l0.002 0zM41.206 31.011h0.457v-0.154h-0.457v-0.206h0.491v-0.154h-0.674v0.914h0.691v-0.154h-0.509v-0.246z"></path>
</symbol>
<symbol id="icon-client-three" viewBox="0 0 59 32">
<path  d="M21.034 28.126l0.029 0.006 0.023 0.017 0.126 0.114c-0.103 0.097-0.223 0.171-0.354 0.229-0.16 0.057-0.331 0.086-0.509 0.080-0.16 0-0.32-0.023-0.469-0.074-0.268-0.088-0.48-0.285-0.586-0.537l-0.002-0.006c-0.053-0.123-0.083-0.266-0.083-0.416 0-0.155 0.033-0.303 0.092-0.436l-0.003 0.007c0.057-0.12 0.137-0.234 0.246-0.331 0.109-0.091 0.234-0.166 0.377-0.211 0.143-0.050 0.308-0.078 0.48-0.078 0.165 0 0.325 0.027 0.473 0.076l-0.011-0.003c0.12 0.046 0.24 0.114 0.337 0.189l-0.109 0.126c-0.006 0.009-0.014 0.016-0.023 0.023l-0 0c-0.011 0.007-0.025 0.012-0.040 0.012-0.002 0-0.004-0-0.006-0l0 0c-0.017-0.002-0.033-0.008-0.046-0.017l0 0-0.057-0.029-0.074-0.046c-0.117-0.058-0.255-0.092-0.4-0.092-0.014 0-0.028 0-0.042 0.001l0.002-0c-0.114 0-0.24 0.023-0.349 0.057-0.207 0.065-0.371 0.214-0.455 0.407l-0.002 0.005c-0.040 0.114-0.063 0.229-0.057 0.343-0.001 0.012-0.001 0.026-0.001 0.039 0 0.325 0.208 0.601 0.499 0.702l0.005 0.002c0.097 0.034 0.206 0.057 0.32 0.057l0.194-0.011c0.158-0.017 0.299-0.079 0.413-0.172l-0.001 0.001c0.016-0.016 0.038-0.027 0.063-0.029h0zM24.68 27.531c0 0.143-0.029 0.286-0.086 0.417-0.057 0.126-0.131 0.234-0.24 0.326-0.103 0.097-0.229 0.171-0.371 0.217-0.309 0.097-0.651 0.097-0.96 0-0.143-0.051-0.267-0.124-0.373-0.218l0.001 0.001c-0.101-0.089-0.182-0.197-0.238-0.32l-0.002-0.006c-0.114-0.274-0.114-0.571 0-0.84 0.057-0.126 0.137-0.234 0.24-0.331 0.109-0.091 0.229-0.16 0.371-0.206 0.143-0.049 0.308-0.077 0.48-0.077s0.337 0.028 0.491 0.080l-0.011-0.003c0.137 0.046 0.269 0.12 0.371 0.211 0.2 0.178 0.326 0.436 0.326 0.723 0 0.009-0 0.018-0 0.026l0-0.001zM24.349 27.531c0-0.114-0.017-0.229-0.057-0.337-0.077-0.197-0.237-0.347-0.435-0.41l-0.005-0.001c-0.229-0.074-0.474-0.074-0.697 0-0.103 0.034-0.194 0.091-0.269 0.16-0.074 0.074-0.131 0.16-0.171 0.251-0.080 0.217-0.080 0.457 0 0.674 0.077 0.197 0.236 0.348 0.435 0.41l0.005 0.001c0.229 0.069 0.474 0.069 0.697 0 0.2-0.067 0.357-0.217 0.433-0.407l0.002-0.005c0.046-0.109 0.063-0.223 0.057-0.337zM27.166 27.886l0.029 0.074 0.080-0.149 0.806-1.257 0.046-0.034c0.016-0.004 0.034-0.006 0.053-0.006 0.006 0 0.011 0 0.017 0.001l-0.001-0h0.234v2.034h-0.286v-1.629l-0.806 1.269c-0.011 0.019-0.026 0.035-0.045 0.045l-0.001 0c-0.020 0.011-0.043 0.017-0.068 0.017-0 0-0 0-0.001 0h-0.046c-0.002 0-0.004 0-0.006 0-0.025 0-0.048-0.006-0.069-0.018l0.001 0c-0.019-0.011-0.035-0.026-0.045-0.045l-0-0.001-0.834-1.28v1.634h-0.274v-2.029h0.24l0.069 0.006c0.017 0.006 0.034 0.023 0.040 0.040l0.823 1.257c0.017 0.017 0.034 0.040 0.046 0.069zM30.194 27.783v0.766h-0.314v-2.034h0.703c0.137 0 0.269 0.011 0.4 0.046 0.097 0.023 0.194 0.063 0.274 0.126 0.069 0.057 0.12 0.12 0.154 0.2 0.040 0.080 0.057 0.171 0.057 0.257 0 0.002 0 0.004 0 0.006 0 0.186-0.089 0.352-0.227 0.456l-0.001 0.001c-0.086 0.063-0.177 0.109-0.286 0.137-0.114 0.034-0.246 0.051-0.377 0.046h-0.383zM30.194 27.566h0.383c0.086 0 0.171-0.011 0.246-0.029 0.068-0.021 0.127-0.052 0.178-0.092l-0.001 0.001c0.087-0.071 0.143-0.178 0.143-0.298 0-0.004-0-0.007-0-0.011v0.001c0-0.006 0.001-0.014 0.001-0.021 0-0.050-0.011-0.098-0.030-0.141l0.001 0.002c-0.027-0.057-0.066-0.105-0.113-0.142l-0.001-0.001c-0.105-0.069-0.234-0.11-0.373-0.11-0.017 0-0.035 0.001-0.052 0.002l0.002-0h-0.383v0.84zM34.434 28.549h-0.246c-0.002 0-0.004 0-0.006 0-0.023 0-0.044-0.006-0.063-0.018l0.001 0c-0.017-0.012-0.030-0.027-0.040-0.045l-0-0.001-0.217-0.497h-1.080l-0.217 0.497c-0.009 0.019-0.023 0.034-0.040 0.045l-0 0c-0.018 0.011-0.040 0.018-0.063 0.018-0.004 0-0.008-0-0.012-0.001l0.001 0h-0.246l0.937-2.034h0.331l0.954 2.034zM32.874 27.794h0.891l-0.377-0.829c-0.029-0.063-0.051-0.126-0.069-0.194l-0.040 0.109-0.034 0.086-0.371 0.829zM35.8 26.52l0.046 0.040 1.383 1.531v-1.577h0.286v2.034h-0.16c-0.023 0-0.046 0-0.069-0.011-0.020-0.010-0.037-0.024-0.051-0.040l-0-0-1.371-1.531v1.583h-0.286v-2.034h0.166l0.057 0.006zM39.834 27.737v0.811h-0.314v-0.811l-0.874-1.223h0.286c0.001-0 0.002-0 0.003-0 0.022 0 0.043 0.006 0.061 0.017l-0-0 0.046 0.046 0.543 0.789c0.034 0.052 0.067 0.112 0.094 0.175l0.003 0.008 0.040-0.086 0.057-0.097 0.537-0.8c0.012-0.015 0.025-0.028 0.039-0.040l0.001-0c0.017-0.011 0.037-0.018 0.059-0.018 0.003 0 0.007 0 0.010 0l-0-0h0.286l-0.874 1.229zM27.006 23.097l0.417 0.034c2.106-0.791 3.86-2.111 5.157-3.801l0.020-0.027c1.149-1.503 1.841-3.409 1.841-5.476 0-0.056-0.001-0.111-0.002-0.167l0 0.008-2.343-2c0.154 0.66 0.243 1.419 0.243 2.198 0 1.498-0.327 2.919-0.915 4.196l0.026-0.063c-0.991 2.121-2.513 3.852-4.399 5.069l-0.047 0.029z"></path>
<path  d="M26.171 23l0.057 0.011c2.149-1.309 3.783-3.137 4.697-5.246 0.914-2.114 1.063-4.411 0.429-6.594l-3.337-2.857c1.349 2.343 1.891 4.971 1.566 7.571-0.385 2.783-1.614 5.227-3.416 7.12l0.005-0.005zM37.503 16.023c-0.571 2.189-1.949 4.166-3.931 5.629-0.583 0.429-1.206 0.817-1.869 1.143 1.664-0.415 3.119-1.138 4.369-2.111l-0.026 0.020c1.193-0.927 2.146-2.107 2.787-3.462l0.025-0.058-1.354-1.16z"></path>
<path  d="M36.971 15.703l-1.931-1.651c-0.053 2.006-0.724 3.846-1.83 5.346l0.018-0.026c-1.212 1.639-2.803 2.933-4.646 3.764l-0.074 0.030h0.006c0.434 0 0.869-0.017 1.297-0.063 1.832-0.634 3.395-1.638 4.667-2.93l0.002-0.002c1.182-1.201 2.051-2.713 2.472-4.402l0.014-0.066zM26.451 7.114l-2.303-1.971c-2.047 0.663-3.771 1.853-5.066 3.411l-0.014 0.018c-1.179 1.424-1.902 3.262-1.926 5.269l-0 0.005c0.033 2.229 0.914 4.246 2.335 5.747l-0.004-0.004c1.503 1.64 3.6 2.8 5.966 3.309 2.114-2.2 3.349-4.914 3.531-7.754 0.177-2.834-0.703-5.651-2.52-8.029zM42.286 15.4c-0.006-2.474-1.16-4.84-3.2-6.589-2.051-1.704-4.711-2.738-7.613-2.738-0.036 0-0.071 0-0.107 0l0.005-0c-1.331 0-2.657 0.211-3.903 0.623l14.086 12.040c0.46-0.979 0.729-2.126 0.731-3.336v-0.001z"></path>
</symbol>
<symbol id="icon-client-four" viewBox="0 0 59 32">
<path d="M13.76 12.297c-1.366 0-2.469 0.994-2.469 2.229 0 1.229 1.103 2.223 2.469 2.223 1.36 0 2.469-0.994 2.469-2.229 0-1.229-1.109-2.229-2.469-2.229zM31.977 11.583c0-1.703-0.754-3.343-2.097-4.549-1.327-1.174-3.083-1.892-5.007-1.892-0.014 0-0.028 0-0.041 0h0.002c-1.891 0-3.709 0.686-5.046 1.886-1.271 1.118-2.075 2.74-2.097 4.55l-0 0.004v9.417s14.286-1.434 14.286-9.411zM6.286 24.086c0.015 1.263 0.574 2.393 1.452 3.167l0.005 0.004c0.924 0.816 2.146 1.314 3.484 1.314 0.011 0 0.021-0 0.032-0h-0.002c1.314 0 2.577-0.474 3.509-1.314 0.884-0.777 1.445-1.904 1.463-3.163l0-0.003v-6.554s-9.943 1-9.943 6.549zM11.257 25.263c-0.257 0-0.514-0.069-0.726-0.2-0.209-0.125-0.373-0.304-0.477-0.518l-0.003-0.007c-0.063-0.132-0.099-0.287-0.099-0.45 0-0.082 0.009-0.161 0.026-0.237l-0.001 0.007c0.057-0.241 0.185-0.446 0.359-0.599l0.001-0.001c0.183-0.166 0.411-0.274 0.663-0.32 0.257-0.046 0.514-0.023 0.754 0.069 0.24 0.086 0.44 0.24 0.583 0.429 0.138 0.181 0.22 0.41 0.22 0.658 0 0.331-0.147 0.627-0.379 0.827l-0.001 0.001c-0.114 0.114-0.263 0.2-0.423 0.257-0.154 0.057-0.326 0.091-0.497 0.091v-0.006zM20.343 23.154v2.434h-0.497v-2.44h0.503zM21.314 24.194v0.389h-1.103v-0.389h1.109zM21.434 23.149v0.4h-1.223v-0.4h1.223zM23.731 24.314v0.114c0 0.183-0.029 0.354-0.074 0.497-0.057 0.149-0.126 0.274-0.217 0.377s-0.2 0.183-0.326 0.24c-0.126 0.057-0.269 0.080-0.423 0.080-0.012 0.001-0.026 0.001-0.040 0.001-0.282 0-0.535-0.124-0.708-0.32l-0.001-0.001c-0.091-0.103-0.16-0.229-0.211-0.377-0.051-0.146-0.080-0.315-0.080-0.49 0-0.002 0-0.005 0-0.007v0-0.114c0-0.189 0.029-0.354 0.080-0.497 0.046-0.149 0.114-0.274 0.211-0.377 0.091-0.109 0.2-0.183 0.326-0.24s0.269-0.080 0.423-0.080 0.291 0.023 0.417 0.080c0.131 0.057 0.24 0.131 0.331 0.24 0.091 0.103 0.16 0.229 0.211 0.377 0.057 0.143 0.080 0.309 0.080 0.497zM23.217 24.429v-0.114c0-0.131-0.006-0.246-0.029-0.343-0.020-0.095-0.056-0.179-0.105-0.254l0.002 0.003c-0.081-0.122-0.217-0.201-0.372-0.201-0.010 0-0.019 0-0.029 0.001l0.001-0c-0.005-0-0.010-0-0.016-0-0.157 0-0.295 0.079-0.377 0.199l-0.001 0.002c-0.040 0.069-0.074 0.149-0.097 0.246-0.023 0.103-0.034 0.217-0.034 0.343v0.12c0 0.131 0.011 0.24 0.034 0.343 0.023 0.097 0.057 0.183 0.103 0.246 0.046 0.069 0.103 0.12 0.171 0.154 0.063 0.034 0.137 0.057 0.229 0.057 0.080 0 0.154-0.023 0.223-0.057 0.068-0.037 0.124-0.090 0.165-0.152l0.001-0.002c0.046-0.063 0.080-0.149 0.103-0.246 0.023-0.103 0.034-0.217 0.034-0.343zM25.36 24.949c0-0.003 0-0.007 0-0.010 0-0.037-0.006-0.073-0.018-0.106l0.001 0.002c-0.016-0.040-0.041-0.072-0.074-0.097l-0.001-0-0.143-0.091c-0.063-0.029-0.143-0.057-0.246-0.086l-0.314-0.12c-0.1-0.046-0.187-0.1-0.266-0.162l0.003 0.002c-0.074-0.057-0.131-0.131-0.171-0.206-0.043-0.078-0.069-0.172-0.069-0.272 0-0.003 0-0.006 0-0.009v0c0-0.001 0-0.002 0-0.003 0-0.099 0.025-0.193 0.070-0.274l-0.002 0.003c0.046-0.086 0.109-0.154 0.189-0.217 0.080-0.057 0.171-0.103 0.286-0.137 0.103-0.029 0.221-0.046 0.342-0.046 0.177 0 0.347 0.036 0.5 0.101l-0.008-0.003c0.131 0.063 0.234 0.149 0.309 0.263s0.114 0.24 0.114 0.389h-0.503c0-0.003 0-0.005 0-0.008 0-0.066-0.017-0.128-0.047-0.182l0.001 0.002c-0.031-0.054-0.076-0.097-0.13-0.125l-0.002-0.001c-0.063-0.033-0.137-0.052-0.216-0.052-0.004 0-0.009 0-0.013 0h0.001c-0.004-0-0.008-0-0.012-0-0.072 0-0.14 0.015-0.203 0.041l0.003-0.001c-0.055 0.023-0.1 0.060-0.131 0.108l-0.001 0.001c-0.029 0.041-0.046 0.092-0.046 0.146 0 0.001 0 0.002 0 0.002v-0c0 0.040 0.011 0.074 0.029 0.114l0.097 0.091c0.102 0.058 0.221 0.112 0.345 0.155l0.015 0.005c0.131 0.034 0.251 0.080 0.349 0.131 0.103 0.051 0.189 0.109 0.257 0.171 0.127 0.115 0.206 0.281 0.206 0.465 0 0.005-0 0.010-0 0.016v-0.001c0 0.103-0.023 0.2-0.057 0.286-0.046 0.080-0.109 0.154-0.183 0.211-0.080 0.057-0.171 0.103-0.286 0.131-0.102 0.027-0.219 0.043-0.34 0.043-0.257 0-0.496-0.071-0.701-0.195l0.006 0.003c-0.097-0.063-0.171-0.149-0.229-0.246-0.057-0.103-0.086-0.223-0.086-0.36h0.503c0 0.080 0.011 0.143 0.034 0.194 0.029 0.057 0.057 0.097 0.103 0.126 0.040 0.034 0.091 0.057 0.154 0.074 0.057 0.011 0.126 0.023 0.194 0.023 0.086 0 0.16-0.017 0.217-0.040 0.098-0.040 0.166-0.134 0.166-0.244 0-0.003-0-0.005-0-0.008v0zM27.291 23.154v2.434h-0.497v-2.44h0.497zM28.046 23.154v0.389h-1.989v-0.394h1.989zM29.966 25.2v0.389h-1.297v-0.389h1.297zM28.834 23.149v2.44h-0.503v-2.44h0.503zM29.794 24.143v0.383h-1.126v-0.383h1.126zM29.966 23.154v0.389h-1.297v-0.394h1.297zM30.257 23.154h0.914c0.183 0 0.343 0.023 0.474 0.080 0.137 0.057 0.24 0.137 0.314 0.251 0.074 0.109 0.109 0.24 0.109 0.4 0 0.131-0.023 0.246-0.069 0.337-0.040 0.091-0.103 0.171-0.183 0.229-0.080 0.063-0.171 0.114-0.286 0.154l-0.154 0.080h-0.789v-0.389h0.583c0.002 0 0.004 0 0.006 0 0.077 0 0.15-0.019 0.213-0.053l-0.003 0.001c0.057-0.029 0.103-0.074 0.131-0.126 0.029-0.054 0.046-0.118 0.046-0.186 0-0.003-0-0.006-0-0.009v0c0-0.003 0-0.007 0-0.010 0-0.071-0.017-0.139-0.047-0.198l0.001 0.003c-0.029-0.057-0.074-0.103-0.13-0.131l-0.002-0.001c-0.060-0.029-0.131-0.046-0.206-0.046-0.006 0-0.012 0-0.017 0l0.001-0h-0.4v2.046h-0.509v-2.44zM31.623 25.589l-0.56-1.086h0.531l0.566 1.063v0.023h-0.537zM34.257 24.72h-0.623v-0.394h0.629c0.005 0 0.010 0 0.016 0 0.077 0 0.15-0.017 0.216-0.047l-0.003 0.001c0.057-0.029 0.103-0.074 0.131-0.131s0.046-0.12 0.046-0.194c-0.001-0.073-0.018-0.141-0.047-0.203l0.001 0.003c-0.028-0.064-0.073-0.117-0.13-0.153l-0.001-0.001c-0.062-0.036-0.136-0.057-0.216-0.057-0.005 0-0.009 0-0.014 0l0.001-0h-0.457v2.046h-0.497v-2.44h0.949c0.194 0 0.354 0.040 0.491 0.109 0.252 0.122 0.423 0.377 0.423 0.671 0 0.009-0 0.019-0.001 0.028l0-0.001c0 0.154-0.034 0.286-0.109 0.406-0.074 0.114-0.177 0.206-0.314 0.269-0.137 0.057-0.297 0.091-0.491 0.091zM37.154 25.2v0.389h-1.297v-0.389h1.297zM36.023 23.149v2.44h-0.503v-2.44h0.503zM36.983 24.143v0.383h-1.126v-0.383h1.126zM37.154 23.154v0.389h-1.297v-0.394h1.297zM38.571 23.154v2.434h-0.503v-2.44h0.503zM39.32 23.154v0.389h-1.989v-0.394h1.989zM41.24 25.2v0.389h-1.297v-0.389h1.297zM40.114 23.143v2.44h-0.503v-2.44h0.503zM41.080 24.137v0.383h-1.137v-0.383h1.131zM41.251 23.149v0.389h-1.309v-0.394h1.297zM41.537 23.149h0.914c0.183 0 0.343 0.023 0.48 0.080 0.131 0.057 0.24 0.137 0.309 0.251 0.074 0.109 0.114 0.24 0.114 0.4 0 0.131-0.029 0.246-0.069 0.337-0.046 0.091-0.109 0.171-0.189 0.229-0.080 0.063-0.171 0.114-0.28 0.154l-0.16 0.080h-0.789v-0.389h0.583c0.004 0 0.008 0 0.012 0 0.077 0 0.15-0.019 0.213-0.053l-0.002 0.001c0.057-0.029 0.103-0.074 0.131-0.126 0.029-0.054 0.046-0.118 0.046-0.186 0-0.003-0-0.006-0-0.009v0c0-0.003 0-0.007 0-0.010 0-0.071-0.017-0.139-0.047-0.198l0.001 0.003c-0.029-0.057-0.074-0.103-0.13-0.131l-0.002-0.001c-0.061-0.029-0.132-0.046-0.207-0.046-0.008 0-0.015 0-0.023 0.001l0.001-0h-0.4v2.046h-0.503v-2.44zM42.909 25.583l-0.56-1.086h0.531l0.56 1.063v0.023h-0.537zM45.006 24.943c0-0.003 0-0.007 0-0.010 0-0.037-0.006-0.073-0.018-0.106l0.001 0.002c-0.016-0.040-0.041-0.072-0.074-0.097l-0.001-0-0.143-0.091c-0.063-0.029-0.143-0.057-0.246-0.086l-0.314-0.12c-0.098-0.047-0.182-0.1-0.26-0.162l0.002 0.002c-0.146-0.105-0.24-0.274-0.24-0.466 0-0.007 0-0.014 0-0.021l-0 0.001c-0-0.004-0-0.009-0-0.013 0-0.095 0.023-0.185 0.065-0.264l-0.002 0.003c0.046-0.086 0.109-0.154 0.189-0.217 0.080-0.057 0.171-0.103 0.286-0.137 0.103-0.029 0.221-0.046 0.342-0.046 0.178 0 0.347 0.036 0.5 0.101l-0.008-0.003c0.131 0.063 0.234 0.149 0.309 0.263s0.114 0.24 0.114 0.389h-0.503c0-0.006 0-0.012 0-0.019 0-0.062-0.015-0.12-0.041-0.172l0.001 0.002c-0.032-0.055-0.079-0.098-0.135-0.125l-0.002-0.001c-0.063-0.033-0.138-0.052-0.216-0.052-0.004 0-0.008 0-0.013 0h0.001c-0.004-0-0.008-0-0.012-0-0.072 0-0.14 0.015-0.203 0.041l0.003-0.001c-0.055 0.023-0.1 0.060-0.131 0.108l-0.001 0.001c-0.029 0.041-0.046 0.092-0.046 0.146 0 0.001 0 0.002 0 0.002v-0c0 0.040 0.011 0.074 0.034 0.114 0.017 0.029 0.051 0.057 0.091 0.091 0.102 0.058 0.221 0.112 0.345 0.155l0.015 0.005c0.131 0.034 0.251 0.080 0.349 0.131 0.103 0.051 0.189 0.109 0.257 0.171 0.127 0.115 0.206 0.281 0.206 0.465 0 0.005-0 0.010-0 0.016v-0.001c0 0.103-0.023 0.2-0.057 0.286-0.046 0.080-0.103 0.154-0.183 0.211s-0.171 0.103-0.286 0.131c-0.102 0.027-0.219 0.043-0.34 0.043-0.257 0-0.496-0.071-0.701-0.195l0.006 0.003c-0.097-0.063-0.171-0.149-0.229-0.246-0.057-0.103-0.086-0.223-0.086-0.36h0.503c0 0.080 0.011 0.143 0.040 0.194 0.023 0.057 0.057 0.097 0.097 0.126 0.040 0.034 0.091 0.057 0.154 0.074 0.057 0.011 0.126 0.023 0.194 0.023 0.091 0 0.16-0.017 0.217-0.040 0.101-0.038 0.171-0.134 0.171-0.246 0-0.002-0-0.003-0-0.005v0z"></path>
</symbol>
<symbol id="icon-client-five" viewBox="0 0 59 32">
<path d="M15.314 25.354c0.137 0.16 0.211 0.354 0.206 0.554 0.006 0.131-0.017 0.263-0.074 0.383s-0.143 0.229-0.251 0.314c-0.274 0.189-0.611 0.28-0.949 0.257h-1.674v-3.503h1.64c0.32-0.023 0.64 0.057 0.903 0.229 0.109 0.080 0.189 0.183 0.246 0.297s0.080 0.234 0.074 0.36c0.006 0.194-0.057 0.383-0.189 0.537-0.131 0.137-0.303 0.234-0.503 0.274 0.229 0.034 0.423 0.143 0.571 0.297zM13.349 24.829h0.703c0.154 0.011 0.314-0.034 0.44-0.114 0.057-0.046 0.097-0.097 0.12-0.16 0.029-0.057 0.040-0.12 0.034-0.189 0-0.006 0.001-0.014 0.001-0.021 0-0.059-0.013-0.114-0.036-0.165l0.001 0.002c-0.027-0.061-0.066-0.113-0.114-0.154l-0.001-0c-0.114-0.076-0.254-0.122-0.404-0.122-0.019 0-0.037 0.001-0.055 0.002l0.002-0h-0.686v0.914zM14.56 26.171c0.057-0.046 0.103-0.097 0.131-0.16 0.022-0.048 0.035-0.105 0.035-0.165 0-0.010-0-0.021-0.001-0.031l0 0.001c0.001-0.010 0.002-0.022 0.002-0.035 0-0.060-0.013-0.117-0.037-0.168l0.001 0.002c-0.032-0.064-0.076-0.118-0.13-0.159l-0.001-0.001c-0.121-0.080-0.269-0.127-0.428-0.127-0.016 0-0.033 0-0.049 0.002l0.002-0h-0.737v0.954h0.743c0.171 0.011 0.331-0.034 0.469-0.12zM18.657 26.857l-0.914-1.366h-0.343v1.371h-0.783v-3.503h1.486c0.371-0.023 0.743 0.080 1.029 0.297 0.211 0.189 0.337 0.44 0.354 0.703 0.023 0.269-0.063 0.531-0.24 0.743-0.183 0.194-0.434 0.32-0.709 0.36l0.971 1.4h-0.857zM17.4 25.017h0.646c0.446 0 0.669-0.177 0.669-0.531 0-0.006 0-0.013 0-0.020 0-0.069-0.015-0.135-0.042-0.195l0.001 0.003c-0.030-0.072-0.072-0.133-0.125-0.183l-0-0c-0.122-0.091-0.275-0.145-0.441-0.145-0.022 0-0.043 0.001-0.064 0.003l0.003-0h-0.651l0.011 1.069zM22.937 26.16h-1.56l-0.274 0.697h-0.823l1.434-3.457h0.886l1.429 3.463h-0.817l-0.274-0.703zM22.731 25.629l-0.571-1.486-0.571 1.486h1.143zM28.297 26.857h-0.777l-1.743-2.377v2.377h-0.777v-3.503h0.777l1.743 2.4v-2.4h0.777v3.503zM32.737 26.023c-0.16 0.263-0.406 0.48-0.703 0.617-0.343 0.154-0.714 0.229-1.091 0.223h-1.389v-3.503h1.389c0.377-0.011 0.749 0.063 1.086 0.211 0.303 0.137 0.549 0.349 0.709 0.611 0.152 0.265 0.241 0.582 0.241 0.92s-0.090 0.655-0.246 0.929l0.005-0.009zM31.846 25.937c0.229-0.229 0.343-0.526 0.343-0.834s-0.114-0.6-0.343-0.834c-0.242-0.187-0.549-0.3-0.883-0.3-0.031 0-0.062 0.001-0.092 0.003l0.004-0h-0.543v2.269h0.543c0.354 0.017 0.703-0.091 0.971-0.303zM23.429 3.869s10.034 3.411 9.823 8.343v8.36s-10.029-3.417-9.823-8.354v-8.349zM42.194 18.611c1.823-1.136 3.992-1.893 6.319-2.11l0.058-0.004v-2.617c-2.631 0.904-4.811 2.553-6.351 4.693l-0.026 0.038z"></path>
<path  d="M41.057 19.4c1.659-2.87 4.283-5.025 7.421-6.042l0.094-0.026v-7.531s-14.297 4.857-13.994 11.891v11.886s0.64-0.211 1.64-0.623c0-0.377 0-0.76 0.046-1.143 0.297-3.269 2.017-6.291 4.794-8.411z"></path>
<path d="M39.697 23.817c0.074-0.829 0.24-1.64 0.497-2.434-1.794 1.869-2.929 4.382-3.028 7.158l-0.001 0.019c1.2-0.514 2.105-0.95 2.992-1.417l-0.238 0.114c-0.174-0.735-0.273-1.58-0.273-2.447 0-0.35 0.016-0.695 0.048-1.037l-0.003 0.044zM40.263 23.857c-0.097 1.040-0.034 2.091 0.177 3.12 3.909-2.103 8.303-5.354 8.131-9.286v-0.343c-2.789 0.286-5.4 1.383-7.429 3.126-0.449 0.989-0.759 2.136-0.871 3.34l-0.003 0.043z"></path>
</symbol>
<symbol id="icon-client-six" viewBox="0 0 59 32">
<path  d="M30.589 15.68c-0.216-0.281-0.347-0.637-0.347-1.024 0-0.040 0.001-0.079 0.004-0.118l-0 0.005v-1.651c0-0.503 0.114-0.886 0.343-1.154 0.229-0.263 0.623-0.389 1.183-0.389 0.526 0 0.897 0.114 1.114 0.331 0.24 0.286 0.36 0.64 0.331 0.989v0.389h-0.931v-0.394c0-0.126-0.006-0.257-0.029-0.383-0.015-0.093-0.063-0.172-0.131-0.228l-0.001-0.001c-0.084-0.055-0.186-0.088-0.296-0.088-0.017 0-0.033 0.001-0.049 0.002l0.002-0c-0.014-0.001-0.030-0.002-0.047-0.002-0.116 0-0.225 0.035-0.315 0.095l0.002-0.001c-0.077 0.062-0.132 0.149-0.154 0.249l-0.001 0.003c-0.029 0.137-0.040 0.274-0.034 0.406v2.006c-0.017 0.194 0.023 0.389 0.114 0.56 0.051 0.057 0.114 0.114 0.194 0.137 0.056 0.023 0.122 0.037 0.191 0.037 0.017 0 0.035-0.001 0.051-0.003l-0.002 0c0.011 0.001 0.024 0.001 0.037 0.001 0.11 0 0.213-0.035 0.296-0.094l-0.002 0.001c0.074-0.060 0.126-0.146 0.143-0.243l0-0.002c0.023-0.131 0.029-0.263 0.029-0.4v-0.406h0.937v0.371c0.029 0.366-0.086 0.731-0.326 1.034-0.211 0.246-0.583 0.371-1.12 0.371-0.543 0-0.954-0.131-1.183-0.4zM34.503 15.697c-0.24-0.257-0.36-0.629-0.36-1.126v-1.737c0-0.486 0.12-0.857 0.36-1.109 0.234-0.257 0.629-0.377 1.189-0.377 0.554 0 0.949 0.126 1.183 0.377 0.24 0.251 0.36 0.623 0.36 1.109v1.737c0 0.491-0.12 0.869-0.36 1.126-0.246 0.257-0.634 0.389-1.183 0.389s-0.949-0.131-1.189-0.389zM36.131 15.28c0.080-0.16 0.12-0.337 0.114-0.514v-2.12c0.006-0.171-0.029-0.349-0.114-0.509-0.051-0.061-0.116-0.109-0.191-0.136l-0.003-0.001c-0.054-0.021-0.116-0.033-0.181-0.033-0.023 0-0.046 0.002-0.068 0.004l0.003-0c-0.019-0.002-0.041-0.004-0.064-0.004-0.065 0-0.128 0.012-0.185 0.034l0.004-0.001c-0.078 0.029-0.144 0.076-0.194 0.136l-0.001 0.001c-0.086 0.16-0.126 0.331-0.114 0.509v2.131c-0.011 0.177 0.029 0.354 0.114 0.514 0.057 0.057 0.12 0.097 0.194 0.126 0.072 0.029 0.155 0.046 0.243 0.046s0.171-0.017 0.247-0.048l-0.004 0.002c0.074-0.029 0.143-0.069 0.2-0.126v-0.011zM38.366 11.4h1.011l0.76 3.2 0.777-3.2h0.983l0.103 4.623h-0.731l-0.074-3.217-0.754 3.217h-0.583l-0.777-3.229-0.074 3.229h-0.731l0.091-4.629zM43.131 11.4h1.577c0.909 0 1.36 0.434 1.36 1.314 0 0.834-0.474 1.257-1.429 1.257h-0.543v2.051h-0.971l0.006-4.629zM44.48 13.371c0.097 0.011 0.194 0 0.286-0.023s0.177-0.063 0.251-0.12c0.109-0.16 0.16-0.343 0.137-0.526 0-0.137-0.011-0.28-0.046-0.417-0.016-0.049-0.042-0.091-0.074-0.126l0 0c-0.033-0.037-0.073-0.068-0.118-0.090l-0.002-0.001c-0.137-0.057-0.286-0.086-0.434-0.074h-0.377v1.377h0.377zM47.474 11.4h1.046l1.069 4.623h-0.903l-0.211-1.069h-0.937l-0.217 1.069h-0.914l1.069-4.629zM48.366 14.417l-0.366-1.943-0.36 1.943h0.726zM50.457 11.4h0.68l1.303 2.634v-2.634h0.806v4.623h-0.646l-1.314-2.754v2.754h-0.829v-4.629zM55.143 14.257l-1.086-2.857h0.914l0.657 1.84 0.623-1.834h0.891l-1.069 2.857v1.76h-0.937v-1.766zM32.091 18.040v0.246h-0.8v1.874h-0.326v-1.874h-0.8v-0.246h1.926zM34.577 20.16h-0.257c-0.002 0-0.005 0-0.008 0-0.022 0-0.043-0.006-0.061-0.018l0 0c-0.020-0.012-0.036-0.030-0.045-0.051l-0-0.001-0.229-0.503h-1.103l-0.229 0.503c-0.007 0.022-0.019 0.042-0.034 0.057v0c-0.019 0.014-0.043 0.023-0.069 0.023-0.002 0-0.004-0-0.006-0h-0.257l0.971-2.12h0.343l0.983 2.114zM32.966 19.377h0.92l-0.389-0.863c-0.026-0.054-0.051-0.121-0.071-0.189l-0.003-0.011-0.034 0.114-0.034 0.086-0.389 0.857zM36.257 19.954h0.183c0.107-0.008 0.206-0.031 0.299-0.065l-0.008 0.002 0.131-0.057v-0.474h-0.417c-0.009-0.004-0.017-0.010-0.023-0.017l-0-0c-0.007-0.004-0.013-0.010-0.017-0.017l-0-0v-0.183h0.754v0.811c-0.187 0.118-0.411 0.197-0.652 0.217l-0.005 0c-0.091 0.011-0.189 0.017-0.286 0.017-0.166 0-0.331-0.029-0.486-0.080-0.15-0.053-0.279-0.128-0.39-0.224l0.002 0.001c-0.104-0.093-0.189-0.205-0.249-0.331l-0.003-0.006c-0.057-0.137-0.091-0.286-0.091-0.44-0-0.011-0.001-0.023-0.001-0.036 0-0.296 0.133-0.562 0.342-0.74l0.001-0.001c0.109-0.097 0.24-0.171 0.383-0.223 0.153-0.052 0.328-0.082 0.511-0.082 0.1 0 0.198 0.009 0.293 0.026l-0.010-0.002c0.16 0.023 0.304 0.071 0.436 0.141l-0.007-0.003c0.057 0.034 0.114 0.069 0.171 0.114l-0.097 0.126c-0.008 0.012-0.020 0.022-0.034 0.028l-0.001 0c-0.012 0.006-0.025 0.010-0.040 0.011h-0c-0.023-0-0.045-0.006-0.063-0.017l0.001 0c-0.041-0.017-0.072-0.032-0.104-0.049l0.006 0.003c-0.155-0.076-0.337-0.12-0.529-0.12-0.009 0-0.018 0-0.027 0l0.001-0c-0.126-0.006-0.257 0.011-0.377 0.057-0.215 0.069-0.384 0.227-0.467 0.429l-0.002 0.005c-0.086 0.229-0.086 0.469 0 0.703 0.046 0.097 0.114 0.189 0.2 0.263 0.147 0.135 0.344 0.218 0.561 0.218 0.038 0 0.075-0.003 0.112-0.008l-0.004 0zM39.354 19.92h1.063v0.24h-1.383v-2.114h0.331l-0.011 1.874zM41.526 20.16h-0.337v-2.114h0.337v2.114zM42.76 18.057c0.023 0 0.040 0.017 0.057 0.034l1.417 1.6v-1.657h0.286v2.126h-0.166c-0.023 0-0.046 0-0.069-0.011-0.022-0.010-0.041-0.024-0.057-0.040l-0-0-1.417-1.6v1.651h-0.28v-2.114h0.171l0.057 0.006zM46.971 18.040v0.234h-1.177v0.703h0.954v0.229h-0.954v0.72h1.177v0.229h-1.52v-2.114h1.52zM12.114 4.949l14.771 3.617v12.686l-14.771-3.617v-12.686zM11.166 3.863v14.389l16.663 4.080v-14.377l-16.663-4.086z"></path>
<path  d="M20.097 29.011l-16.669-4.097v-14.371l16.669 4.086v14.383z"></path>
<path  d="M11.44 4.783l14.583 3.577-6.206 5.349-14.577-3.571 6.2-5.354zM11.166 3.869l-7.737 6.674 16.669 4.086 7.731-6.674-16.663-4.086zM21.029 28.2l6.8-5.857-6.8-1.669v7.531z"></path>
</symbol>
<symbol id="icon-close-modal" viewBox="0 0 32 32">
<path d="M32 3.223l-3.223-3.223-12.777 12.777-12.777-12.777-3.223 3.223 12.777 12.777-12.777 12.777 3.223 3.223 12.777-12.777 12.777 12.777 3.223-3.223-12.777-12.777 12.777-12.777z"></path>
</symbol>
</defs>
</svg>